<svg width="102" height="42" viewBox="0 0 102 42" fill="none" xmlns="http://www.w3.org/2000/svg">
<path d="M0.218 16V3.988C0.218 3.414 0.358 2.896 0.638 2.434C0.918 1.958 1.296 1.58 1.772 1.3C2.248 1.02 2.766 0.879999 3.326 0.879999H12.209C12.783 0.879999 13.301 1.02 13.763 1.3C14.239 1.58 14.617 1.958 14.897 2.434C15.191 2.896 15.338 3.414 15.338 3.988V16H12.041V11.128H3.473V16H0.218ZM3.473 7.852H12.041V4.156H3.473V7.852ZM17.7307 16V0.879999H21.0907L29.5537 10.96V0.879999H32.8507V16H29.4907L20.9857 5.878V16H17.7307ZM35.2453 16V0.879999H47.2363C47.8103 0.879999 48.3283 1.02 48.7903 1.3C49.2663 1.58 49.6443 1.958 49.9243 2.434C50.2183 2.896 50.3653 3.414 50.3653 3.988V12.892C50.3653 13.452 50.2183 13.97 49.9243 14.446C49.6443 14.922 49.2663 15.3 48.7903 15.58C48.3283 15.86 47.8103 16 47.2363 16H35.2453ZM38.4793 12.724H47.0683V4.156H38.4793V12.724ZM58.345 16V10.351L51.352 0.879999H55.237L59.983 6.844L64.708 0.879999H68.635L61.621 10.372V16H58.345ZM69.657 16V0.879999H72.933V6.802H75.894L80.85 0.879999H84.252V2.014L78.855 8.44L84.252 14.866V16H80.85L75.894 10.078H72.933V16H69.657ZM85.9201 16V3.988C85.9201 3.414 86.0601 2.896 86.3401 2.434C86.6201 1.958 86.9981 1.58 87.4741 1.3C87.9501 1.02 88.4681 0.879999 89.0281 0.879999H97.9111C98.4851 0.879999 99.0031 1.02 99.4651 1.3C99.9411 1.58 100.319 1.958 100.599 2.434C100.893 2.896 101.04 3.414 101.04 3.988V16H97.7431V11.128H89.1751V16H85.9201ZM89.1751 7.852H97.7431V4.156H89.1751V7.852Z" fill="url(#paint0_linear_11_16)"/>
<path d="M0.218 42V29.988C0.218 29.414 0.358 28.896 0.638 28.434C0.918 27.958 1.296 27.58 1.772 27.3C2.248 27.02 2.766 26.88 3.326 26.88H12.209C12.783 26.88 13.301 27.02 13.763 27.3C14.239 27.58 14.617 27.958 14.897 28.434C15.191 28.896 15.338 29.414 15.338 29.988V42H12.041V37.128H3.473V42H0.218ZM3.473 33.852H12.041V30.156H3.473V33.852ZM17.7727 42V26.88H29.7637C30.3377 26.88 30.8557 27.02 31.3177 27.3C31.7937 27.58 32.1717 27.958 32.4517 28.434C32.7457 28.896 32.8927 29.414 32.8927 29.988V38.892C32.8927 39.452 32.7457 39.97 32.4517 40.446C32.1717 40.922 31.7937 41.3 31.3177 41.58C30.8557 41.86 30.3377 42 29.7637 42H17.7727ZM21.0067 38.724H29.5957V30.156H21.0067V38.724ZM34.7194 42V26.88H37.9324V42H34.7194Z" fill="white"/>
<defs>
<linearGradient id="paint0_linear_11_16" x1="7.5" y1="6.5" x2="110" y2="7.5" gradientUnits="userSpaceOnUse">
<stop offset="0.0104167" stop-color="#D690CF"/>
<stop offset="0.473958" stop-color="#D3BDD1"/>
<stop offset="0.973958" stop-color="#97C5E2"/>
</linearGradient>
</defs>
</svg>
